<?xml version="1.0" encoding="utf-8"?>
<svg xmlns="http://www.w3.org/2000/svg" viewBox="131.1553 46.1265 209.364 418.728" width="209.364px" height="418.728px">
  <g transform="matrix(1, 0, 0, 1, -11.560693740844727, -8.092485427856445)" id="object-0">
    <rect x="142.716" y="54.219" width="209.364" height="418.728" rx="30" ry="30" fill="white" stroke="black" stroke-width="4" style=""/>
    <rect x="148.874" y="77.894" width="197.049" height="363.862" fill="#f5f5f5" stroke="black" stroke-width="1" style=""/>
    <rect x="149.452" y="78.472" width="197.049" height="27.71" fill="#ea1d2c" stroke="none" style=""/>
    <text x="174.283" y="95.588" font-family="Arial" font-size="16" font-weight="bold" fill="white" style="white-space: pre; font-size: 9.9px;">Meu Pedido</text>
    <rect x="308.976" y="85.93" width="15.394" height="9.236" rx="2" ry="2" fill="white" stroke="white" stroke-width="1" style=""/>
    <rect x="324.37" y="88.393" width="1.847" height="4.31" rx="1" ry="1" fill="white" style=""/>
    <text x="278.486" y="94.588" font-family="Arial" font-size="14" fill="white" style="white-space: pre; font-size: 8.6px;">21:45</text>
    <path d="M 158.11 92.087 L 167.347 85.93 L 167.347 98.245 L 158.11 92.087 Z" fill="white" style=""/>
    <rect x="155.032" y="109.639" width="184.733" height="61.577" rx="8" ry="8" fill="white" stroke="#e0e0e0" stroke-width="1" style=""/>
    <circle cx="173.505" cy="131.191" r="13.547" fill="white" stroke="#e0e0e0" stroke-width="1" style=""/>
    <path d="M 168.579 131.191 L 170.426 133.039 L 172.889 129.345 M 174.737 131.191 L 176.584 133.039 L 179.047 129.345" stroke="black" stroke-width="1.5" fill="none" style=""/>
    <text x="195.057" y="125.034" font-family="Arial" font-size="16" font-weight="bold" fill="black" style="white-space: pre; font-size: 9.9px;">Pizzaria do Chef</text>
    <text x="195.057" y="137.349" font-family="Arial" font-size="13" fill="#666666" style="white-space: pre; font-size: 8px;">Pizza Grande - Margherita</text>
    <text x="195.057" y="149.665" font-family="Arial" font-size="13" fill="#666666" style="white-space: pre; font-size: 8px;">Pedido #84721</text>
    <text x="300" y="126.19" font-family="Arial" font-size="15" font-weight="bold" fill="#ea1d2c" style="white-space: pre; font-size: 9.2px;">R$54,90</text>
    <rect x="155.032" y="183.532" width="184.733" height="233.995" rx="8" ry="8" fill="white" stroke="#e0e0e0" stroke-width="1" style=""/>
    <text x="164.268" y="205.084" font-family="Arial" font-size="18" font-weight="bold" fill="black" style="white-space: pre; font-size: 11.1px;">Status do pedido</text>
    <circle cx="167.347" cy="232.794" r="7.389" fill="#ea1d2c" stroke="none" style=""/>
    <path d="M 163.653 232.794 L 166.116 235.257 L 171.042 230.331" stroke="white" stroke-width="2.5" fill="none" style=""/>
    <text x="185.82" y="232.794" font-family="Arial" font-size="15" font-weight="bold" fill="black" style="white-space: pre; font-size: 9.2px;">Pagamento confirmado</text>
    <text x="185.82" y="245.109" font-family="Arial" font-size="13" fill="#666666" style="white-space: pre; font-size: 8px;">21:20 • Cartão de crédito</text>
    <line x1="167.347" y1="245.109" x2="167.347" y2="275.898" stroke="#ea1d2c" stroke-width="2.5" style=""/>
    <circle cx="167.347" cy="275.898" r="7.389" fill="#ea1d2c" stroke="none" style=""/>
    <path d="M 163.653 275.898 L 166.116 278.362 L 171.042 273.435" stroke="white" stroke-width="2.5" fill="none" style=""/>
    <text x="185.82" y="275.898" font-family="Arial" font-size="15" font-weight="bold" fill="black" style="white-space: pre; font-size: 9.2px;">Em preparo</text>
    <text x="185.82" y="288.214" font-family="Arial" font-size="13" fill="#666666" style="white-space: pre; font-size: 8px;">21:28 • Seu pedido está sendo preparado</text>
    <line x1="167.347" y1="288.214" x2="167.347" y2="319.002" stroke="#ea1d2c" stroke-width="2.5" style=""/>
    <circle cx="167.347" cy="319.002" r="7.389" fill="#ea1d2c" stroke="none" style=""/>
    <path d="M 163.653 319.002 L 166.116 321.466 L 171.042 316.54" stroke="white" stroke-width="2.5" fill="none" style=""/>
    <text x="185.82" y="319.002" font-family="Arial" font-size="15" font-weight="bold" fill="black" style="white-space: pre; font-size: 9.2px;">Pedido entregue</text>
    <text x="185.82" y="331.318" font-family="Arial" font-size="13" fill="#666666" style="white-space: pre; font-size: 8px;">21:45 • Aproveite sua refeição!</text>
    <g transform="matrix(0.615777, 0, 0, 0.615777, 247.398651, 365.422913)" style="">
      <circle cx="0" cy="0" r="35" fill="white" stroke="#ea1d2c" stroke-width="2"/>
      <circle cx="0" cy="0" r="25" fill="#f5f5f5" stroke="#333" stroke-width="1"/>
      <circle cx="-10" cy="-5" r="3" fill="#333"/>
      <circle cx="10" cy="-5" r="3" fill="#333"/>
      <path d="M-10,10 C-5,15 5,15 10,10" stroke="#333" stroke-width="2" fill="none"/>
      <path d="M-20,-15 H20 L10,-30 H-10 Z" fill="#ea1d2c" stroke="#333" stroke-width="1"/>
    </g>
    <text x="247.398" y="399.291" font-family="Arial" font-size="14" font-weight="bold" fill="#333" text-anchor="middle" style="white-space: pre; font-size: 8.6px;">João Silva</text>
    <text x="247.398" y="410.375" font-family="Arial" font-size="12" fill="#666666" text-anchor="middle" style="white-space: pre; font-size: 7.4px;">Entregador</text>
    <rect x="148.874" y="416.843" width="197.049" height="24.631" fill="white" stroke="#e0e0e0" stroke-width="1" style=""/>
    <text x="167.347" y="432.237" font-family="Arial" font-size="12" fill="#666666" style="white-space: pre; font-size: 7.4px;">Início</text>
    <text x="216.609" y="432.237" font-family="Arial" font-size="12" fill="#ea1d2c" font-weight="bold" style="white-space: pre; font-size: 7.4px;">Pedidos</text>
    <text x="265.871" y="432.237" font-family="Arial" font-size="12" fill="#666666" style="white-space: pre; font-size: 7.4px;">Perfil</text>
    <text x="315.134" y="432.237" font-family="Arial" font-size="12" fill="#666666" style="white-space: pre; font-size: 7.4px;">Buscar</text>
    <circle cx="246.554" cy="459.664" r="12.316" fill="white" stroke="black" stroke-width="2" style=""/>
  </g>
</svg>